<svg width="740" height="740" viewBox="0 0 740 740" fill="none" xmlns="http://www.w3.org/2000/svg">
<path d="M74 0H666C685.626 0 704.448 7.7964 718.326 21.6741C732.204 35.5518 740 54.374 740 74V666C740 685.626 732.204 704.448 718.326 718.326C704.448 732.204 685.626 740 666 740H74C54.374 740 35.5518 732.204 21.6741 718.326C7.7964 704.448 0 685.626 0 666V74C0 54.374 7.7964 35.5518 21.6741 21.6741C35.5518 7.7964 54.374 0 74 0ZM148 148V296H296V370H222V592H296V518H444V592H518V370H444V296H592V148H444V296H296V148H148Z" fill="white"/>
</svg>
